<svg xmlns="http://www.w3.org/2000/svg" viewBox="0 0 600 400" fill="none">
  <!-- Browser chrome -->
  <rect width="600" height="400" rx="8" fill="#f8fafc" stroke="#e2e8f0" stroke-width="2"/>
  <rect width="600" height="40" rx="8" fill="#f1f5f9"/>
  <rect x="0" y="32" width="600" height="8" fill="#f1f5f9"/>
  <circle cx="20" cy="20" r="6" fill="#fca5a5"/>
  <circle cx="40" cy="20" r="6" fill="#fcd34d"/>
  <circle cx="60" cy="20" r="6" fill="#86efac"/>
  <rect x="120" y="12" width="360" height="16" rx="8" fill="#e2e8f0"/>

  <!-- Sidebar -->
  <rect x="0" y="40" width="160" height="360" fill="#f1f5f9"/>
  <rect x="16" y="56" width="128" height="12" rx="4" fill="#cbd5e1"/>
  <rect x="16" y="80" width="100" height="10" rx="4" fill="#e2e8f0"/>
  <rect x="16" y="100" width="112" height="10" rx="4" fill="#e2e8f0"/>
  <rect x="16" y="120" width="88" height="10" rx="4" fill="#2563eb" opacity="0.3"/>
  <rect x="16" y="140" width="96" height="10" rx="4" fill="#e2e8f0"/>
  <rect x="16" y="160" width="108" height="10" rx="4" fill="#e2e8f0"/>

  <!-- Main content area -->
  <rect x="176" y="56" width="200" height="16" rx="4" fill="#1f2937" opacity="0.2"/>

  <!-- Metric cards -->
  <rect x="176" y="88" width="128" height="72" rx="8" fill="white" stroke="#e2e8f0" stroke-width="1"/>
  <rect x="192" y="100" width="60" height="10" rx="4" fill="#cbd5e1"/>
  <rect x="192" y="120" width="80" height="20" rx="4" fill="#2563eb" opacity="0.2"/>

  <rect x="316" y="88" width="128" height="72" rx="8" fill="white" stroke="#e2e8f0" stroke-width="1"/>
  <rect x="332" y="100" width="60" height="10" rx="4" fill="#cbd5e1"/>
  <rect x="332" y="120" width="80" height="20" rx="4" fill="#059669" opacity="0.2"/>

  <rect x="456" y="88" width="128" height="72" rx="8" fill="white" stroke="#e2e8f0" stroke-width="1"/>
  <rect x="472" y="100" width="60" height="10" rx="4" fill="#cbd5e1"/>
  <rect x="472" y="120" width="80" height="20" rx="4" fill="#d97706" opacity="0.2"/>

  <!-- Chart area -->
  <rect x="176" y="176" width="408" height="200" rx="8" fill="white" stroke="#e2e8f0" stroke-width="1"/>
  <rect x="192" y="192" width="120" height="12" rx="4" fill="#cbd5e1"/>
  <polyline points="210,340 260,310 310,320 360,280 410,260 460,240 510,230 550,220" stroke="#2563eb" stroke-width="2" fill="none"/>
  <line x1="192" y1="350" x2="560" y2="350" stroke="#e2e8f0" stroke-width="1"/>

  <!-- Label -->
  <text x="300" y="395" font-family="system-ui" font-size="10" fill="#94a3b8" text-anchor="middle">SAP Intelligence Dashboard — Procurement Analytics Preview</text>
</svg>
